<svg xmlns="http://www.w3.org/2000/svg" width="16" height="16" viewBox="0 0 16 16" fill="none">
		<g clippath="url(#clip0_64041_3222)">
			<path d="M9.60078 0.8C9.60078 0.358172 9.24261 0 8.80078 0C8.35895 0 8.00078 0.358172 8.00078 0.8V3.66863L6.96647 2.63431C6.65405 2.3219 6.14752 2.3219 5.8351 2.63431C5.52268 2.94673 5.52268 3.45327 5.8351 3.76569L8.2351 6.16569C8.54751 6.47811 9.05405 6.47811 9.36647 6.16569L11.7665 3.76569C12.0789 3.45327 12.0789 2.94673 11.7665 2.63431C11.454 2.3219 10.9475 2.3219 10.6351 2.63431L9.60078 3.66863V0.8Z" fill="#333333"/>
			<path fillrule="evenodd" cliprule="evenodd" d="M0.800781 0.8C0.800781 0.358172 1.15895 0 1.60078 0H2.80078C3.46352 0 4.00078 0.537258 4.00078 1.2V8H12.9069L13.6088 3.08686C13.6713 2.64948 14.0765 2.34556 14.5139 2.40804C14.9513 2.47052 15.2552 2.87575 15.1927 3.31314L14.4418 8.56971C14.3573 9.16088 13.851 9.6 13.2539 9.6H4.00078V11.2H12.0008C13.3263 11.2 14.4008 12.2745 14.4008 13.6C14.4008 14.9255 13.3263 16 12.0008 16C10.6753 16 9.60078 14.9255 9.60078 13.6C9.60078 13.3195 9.6489 13.0502 9.73735 12.8H5.46422C5.55266 13.0502 5.60078 13.3195 5.60078 13.6C5.60078 14.9255 4.52626 16 3.20078 16C1.8753 16 0.800781 14.9255 0.800781 13.6C0.800781 12.555 1.46863 11.666 2.40078 11.3366V1.6H1.60078C1.15895 1.6 0.800781 1.24183 0.800781 0.8ZM11.2008 13.6C11.2008 13.1582 11.559 12.8 12.0008 12.8C12.4426 12.8 12.8008 13.1582 12.8008 13.6C12.8008 14.0418 12.4426 14.4 12.0008 14.4C11.559 14.4 11.2008 14.0418 11.2008 13.6ZM2.40078 13.6C2.40078 13.1582 2.75895 12.8 3.20078 12.8C3.64261 12.8 4.00078 13.1582 4.00078 13.6C4.00078 14.0418 3.64261 14.4 3.20078 14.4C2.75895 14.4 2.40078 14.0418 2.40078 13.6Z" fill="#333333"/>
		</g>
		<defs>
			<clipPath id="clip0_64041_3222">
			<rect width="16" height="16" fill="white"/>
			</clipPath>
		</defs>
	</svg>